<?xml version="1.0" encoding="UTF-8"?>
<svg id="_图层_1" data-name="图层_1" xmlns="http://www.w3.org/2000/svg" version="1.1" viewBox="0 0 2172 724">
  <!-- Generator: Adobe Illustrator 30.3.0, SVG Export Plug-In . SVG Version: 2.1.3 Build 182)  -->
  <path d="M592.7,251.9v122.2c0,0-22.9-24-22.9-24l-8.5-10.4-12.3-14.2h-44.9s-12.2,13.2-12.2,13.2l-17.2,18.4c-1.2,1.3-5.5,3.1-5.5,5.1v80.5c5.2,3.5,8.2,6.8,12.3,11.1l4,4.2c-.8,3.8,2.3,4.3,3.9,6l14.4,15.9h44.6c0,0,31.1-44.9,31.1-44.9l13.1-16.5v61c.1,0,18.4-.3,18.4-.3v-227.6c-6.8-.7-12-.7-18.3,0ZM571.9,414.6l-8.8,12.1-10.6,15.9-13.6,19.5h-26.7c0,.1-16.9-19.6-16.9-19.6l-8-8.2v-66.1s8.3-6.1,8.3-6.1c1.9-1.4,3.8-4.3,5.5-6.2l10.7-12.6,28.8-.2,12.5,14.8,14.6,16.3,6.3,6.7,13.2,13.4-15.3,20.3Z"/>
  <polygon points="273.4 269.1 273.1 251.4 132.6 251.4 132.6 480.1 271.5 480.1 271.7 462.1 151.1 462 150.9 374.7 237.1 374.5 236.8 356.9 150.9 356.8 151 269.1 273.4 269.1"/>
  <path d="M1932.6,356.6l-16.5-15.4-15.8-15.5-16.1-.2-12.5,12.6-5.8,5.3-11.3,9.4-15.5-12.9-13.7-14.2h-15.1c0-.1-13.3,12.7-13.3,12.7l-10.9,9.2-.2-22-17.7.4v153.7c-.1,0,17.9.2,17.9.2v-113.2c3.7-2.3,7.3-3.1,11.7-3.8l16-17c1.1-1.1,4.2-1.2,5.6-1.1l15.8,17.5,9.8,4.5v42.2s18.2.1,18.2.1v-41.9c1.8-2.6,7.2-3.4,10-4.4l18.2-19.4,10.7,10.6,8,8.1c2.7,2.7,9.5,3.2,10.8,8.4v109.1s18.9,0,18.9,0v-117.1c0-3.6-5.5-4.4-7.3-6.1Z"/>
  <path d="M862.9,342.9l-13.9-18.1c-1.3-1.6-3.3-3.2-5.6-3.2h-69.7c0,.1-10.9,14.2-10.9,14.2l-5.8,7c-5,6-8.8,12.1-15.2,17.1v82c0,0,4.2,4.1,4.2,4.1,3.3,3.2,7.7,7.8,9.7,11.6,1.8,3.6,2.8,4.3,5.2,7.2l12.8,15.3h77.6c1-.3,2.9-2.1,2.9-3.1l-.4-14.9h-71.5s-12.7-17-12.7-17c-2.8-3.8-6.2-7-10.1-10.2l-.2-25.5h87.9s25.5-31.7,25.5-31.7l5.4-4-.3-14.5c-6.5-4.4-10.3-10.3-14.9-16.3ZM838.5,391.6h-79.2c0,.1,0-23.4,0-23.4l9.8-11.2,13.5-17.5h55.4c0,.1,20.5,26.8,20.5,26.8l-19.9,25.4Z"/>
  <path d="M1552.7,348.8l-6.8-8.2-16.2-18.8h-66.8c0,.1-10.6,11.8-10.6,11.8l-7.1,7.6c-6.2,6.6-10.9,13.3-18,19.5v81.9c6.1,5.1,11.7,10,15.5,16,1.8,2.9,2.8,3.7,5.2,6.1l14.7,15.4h65.6c1.4-.5,3.4-1.7,4.2-2.6l15.9-17.2,4.5-6.4c3.2-4.6,6.8-7.5,11.7-11.1v-82s-11.5-12-11.5-12ZM1537.4,443.3l-15.3,18.7h-51.8c0,.1-18-20.9-18-20.9l-6.7-7.2v-66.2s7.2-6.8,7.2-6.8l17.6-21.5h50.9c0,0,16.4,19.5,16.4,19.5l8.5,8.7v67.2c0,0-8.6,8.4-8.6,8.4Z"/>
  <path d="M1303.2,356.9v-87.8c0,0,124.8,0,124.8,0v-17.6c-.1,0-143.2,0-143.2,0v228c6.1.8,11.8.8,18.3.3v-105.1s84.3,0,84.3,0c.5-6.1.6-11.4-.2-17.7h-84.1Z"/>
  <path d="M1213.3,416.5l-6.3-8.9-12.6-15.6h-65.3c0,0-19.6-25.5-19.6-25.5l19.6-27.1h89.9c1-6.3,1-11.9,0-17.7h-98.6c0,.1-17.5,23.9-17.5,23.9-3.8,5.2-7.4,9.6-12.8,13.6v14.8c.1,0,10.3,10.3,10.3,10.3l4.6,6.2,13.1,16.1c1,1.2,3.4,2.8,5.2,2.8h62.8s10.8,15.2,10.8,15.2l8.4,11.1-4.4,4.9-15.6,21.5h-91.2c0,0-.1,18-.1,18h100.2s12.6-15.6,12.6-15.6c1.9-2.3,2.9-3.9,4.5-6.6,3.3-5.4,8.3-10.2,12.9-14.7l-.2-15.6c-3.9-3.5-7.9-7.1-10.7-11.1Z"/>
  <path d="M1039.9,416.1c-1.8-3.9-3.9-5.5-6.6-8.8l-12.2-15.2h-65.5c0-.1-20.1-25.7-20.1-25.7l14.2-18.8,6-8.1h89.7s.1-17.8.1-17.8l-98.7.2-17.4,23.3-5.1,6.8-7.8,7.1-.4,14.1c0,1.2,3.1,2.9,3.8,3.8l9.6,11.1,5.3,6.8,12,14.6h65.4c0,0,12.2,16.8,12.2,16.8l7.8,9.4-20,26.3-91.1.2.4,18h99s12.5-15.3,12.5-15.3c2-2.4,3.1-4.5,5.2-7l8.6-10.2,5.1-3.8-.2-16.6c-4.8-2.8-9.8-6.4-11.9-11.1Z"/>
  <path d="M420,357.2l-1.8-5.3-19.4-26.2h-42.1c-2.5.6-5.3,4.8-6.6,7.2-6.9,12.5-13.7,23.7-21.5,35.6l-.3-42.7h-18s0,154.1,0,154.1h18.1c0-.1.1-78.3.1-78.3,4-5,6.9-9.3,9.9-14.7,2.9-5.1,7.6-10.5,9.6-15.6.3-11.4,10.9-4.6,12.1-18.7l4.8-9.3h24.8c4.6,2.5,5.8,8.9,8.1,12.6,3,4.9,7.5,8.4,11.7,12.9v110.8s18.6-.2,18.6-.2v-116c0-4.3-4.7-6.8-8.1-6.4Z"/>
  <path d="M1717.1,344.5c-.6-.8-.8-4.3-1.8-4.4l-3.6-.3-12.2-14.3h-38.8s-17,22.7-17,22.7l-21.1,26-.3-48.5-18.3.4.2,153.6h18.3s0-78.8,0-78.8l24.6-28.5,7.5-9.5,14.7-19.7,22.7-.2,7,9.3c3.3,4.4,5.9,8.2,11.3,10.7,5.6,2.6,1.8,6.8,4.6,11.6l17-.3.2-16.4c-5.4-3.8-11.1-8.2-15.1-13.5Z"/>
  <path d="M692.6,454.5c-5-7.5-9.4-14-15.6-20.1v-182.5s-14.8-.4-14.8-.4c-1.5,0-3.3,2.4-3.3,4.4v186c0,2.1,3.4,3.4,4.4,4.6,2.6,3.1,6.6,7.1,8.2,10.2,1.9,3.7,2.3,4.9,5.2,7.5,4.8,4.4,8.5,10,12.5,15.4l6.6.7c2.4.3,5.8-2.4,5.8-4.9l-.2-12.9-8.8-8.1Z"/>
  <path d="M2008,243.6c-17.3,0-31.4,14-31.4,31.3s14,31.3,31.4,31.3,31.4-14,31.4-31.3-14-31.3-31.4-31.3ZM2008.1,301.8c-14.8,0-26.8-12-26.8-26.8s12-26.8,26.8-26.8,26.8,12,26.8,26.8-12,26.8-26.8,26.8Z"/>
  <path d="M2008.4,286.6c-2.5,0-6.3-2.1-7.5-5.1-1.5-3.6-1.4-8.6-.1-12.6,1.2-4.1,5.2-6.3,8.6-6.1,3.3.2,5.9,2.3,7.9,5.7l5.7-.9c-1.1-4.8-3.9-7.4-8.3-8.8-5.1-1.6-10.5-1.3-15,1.8-3.7,2.6-6.1,7.6-6.6,12.9-.8,8.4,4.1,16.2,11.7,17.7,7.9,1.6,16-.9,18.2-9.7l-6.1-.6c-1.9,4.1-4.6,5.8-8.4,5.7Z"/>
</svg>