<?xml version="1.0" encoding="UTF-8"?>
<svg id="_图层_1" xmlns="http://www.w3.org/2000/svg" version="1.1" viewBox="0 0 540 540">
  <!-- Generator: Adobe Illustrator 30.3.0, SVG Export Plug-In . SVG Version: 2.1.3 Build 182)  -->
  <defs>
    <style>
      .st0 {
        fill: #231815;
      }
    </style>
  </defs>
  <path class="st0" d="M284.1,180.3c16.8,0,30.9,11.8,34.5,27.5h-6.5c-3.4-12.2-14.6-21.2-27.9-21.2s-24.5,9-27.9,21.2h-6.5c3.6-15.7,17.7-27.5,34.5-27.5Z"/>
  <polygon class="st0" points="107.2 249.8 68.8 249.8 68.8 214 75 214 75 243.6 101 243.6 101 214 107.2 214 107.2 249.8"/>
  <polygon class="st0" points="107.2 207.8 101 207.8 101 185.4 75 185.4 75 207.8 68.8 207.8 68.8 179.2 107.2 179.2 107.2 207.8"/>
  <polygon class="st0" points="183.9 251 151.7 240.1 151.7 249.8 113.4 249.8 113.4 214 119.5 214 119.5 243.6 145.6 243.6 145.6 231.4 177.7 242.4 177.7 214 183.9 214 183.9 251"/>
  <polygon class="st0" points="183.9 207.8 177.7 207.8 177.7 185.4 151.7 185.4 151.7 197.3 119.5 186.6 119.5 207.8 113.4 207.8 113.4 178 145.6 188.8 145.6 179.2 183.9 179.2 183.9 207.8"/>
  <path class="st0" d="M238.1,250.2l-1.2-1.3h0s-5.3-5.9-5.3-5.9l-2.9,2.3c-4.4,3.2-9.4,5-14.9,5.7v-5.9c3.6-.5,7-1.8,10-3.9.2-.1,1.8-1.3,1.8-1.3l1.9-1.4-20.9-23.2-.6.3c-4.1,2.1-7,4.4-8.7,6.8-1.7,2.4-2.5,5.5-2.5,9s1.4,7.6,4.2,10.1c2.3,2,5.2,3.3,8.6,3.6v5.9c-3.6-.2-6.9-.9-9.8-2.2-3.3-1.5-5.9-3.7-7.7-6.5-1.8-2.8-2.7-6.1-2.7-9.8s1.1-8.6,3.4-11.9c2.3-3.4,6-6.4,10.9-9.1l1-.5-.7-.8c-2.9-3.3-4.9-6.1-6.2-8.3-1.2-2.2-1.8-4.6-1.8-7.3s.7-5.5,2.1-7.8c1.4-2.3,3.4-4.1,6-5.4,1.6-.8,3.5-1.4,5.4-1.7v5.8c-1.4.4-2.7,1.1-3.7,2.1-1.8,1.7-2.8,4.1-2.8,7s.6,4.4,1.8,6.2c.4.6,1,1.4,1.6,2.2h0s.6.7.6.7c.8.9,1.7,2,2.8,3.1l1.3,1.5,3.3-1.9c2.8-1.6,4.9-3.1,6.1-4.5,1.7-2,2.5-4.4,2.5-7.3s-.9-5.2-2.7-6.9c-1.2-1.2-2.8-2-4.6-2.3v-5.7c2.3.3,4.4.9,6.3,1.8,2.6,1.3,4.6,3.1,6.1,5.3,1.4,2.3,2.2,4.9,2.2,7.8s-1.1,6.8-3.2,9.4c-1.8,2.2-4.8,4.4-8.8,6.6l-3.4,2,4.2,4.6.5.5,14,15.3.6-1.1c2.3-3.9,4-8.5,5.1-13.6h7.1c-1.4,7.4-4.1,13.8-7.9,19.1l-.4.6,11.1,12.2h-9.2Z"/>
  <path class="st0" d="M284.1,251c-19.5,0-35.3-15.9-35.3-35.3s0-1.1,0-1.6h6.3c0,.5,0,1.1,0,1.6,0,16,13,29,29,29s29-13,29-29,0-1.1,0-1.6h6.4c0,.5,0,1.1,0,1.6,0,19.5-15.9,35.3-35.3,35.3Z"/>
  <path class="st0" d="M395.1,215.6c0,19.5-15.8,35.3-35.3,35.3s-35.3-15.8-35.3-35.3v-1.6h6.2v1.6c0,16,13.1,29.1,29.1,29.1s29.1-13.1,29.1-29.1v-1.6h6.2v1.6Z"/>
  <polygon class="st0" points="395.1 207.8 388.9 207.8 388.9 186.5 330.7 186.5 330.7 207.8 324.5 207.8 324.5 180.3 395.1 180.3 395.1 207.8"/>
  <polygon class="st0" points="470.8 218.7 454.7 218.7 454.7 250.9 416.3 250.9 416.3 218.7 400.2 218.7 400.2 214 422.5 214 422.5 244.7 448.5 244.7 448.5 214 470.8 214 470.8 218.7"/>
  <polygon class="st0" points="470.8 207.8 464.6 207.8 464.6 186.5 406.4 186.5 406.4 207.8 400.2 207.8 400.2 180.3 470.8 180.3 470.8 207.8"/>
  <rect class="st0" x="448.7" y="290.3" width="5.8" height="5.8"/>
  <polygon class="st0" points="232.6 351.9 232.6 351.9 232.6 351.9 232.6 351.9"/>
  <g>
    <polygon class="st0" points="108 326.1 127.1 326.1 127.1 300.2 120.5 300.2 120.5 319.8 108 319.8 108 326.1"/>
    <polygon class="st0" points="103.3 354.7 103.3 354.7 103.3 326.1 103.3 326.1 103.3 319.8 103.3 319.8 103.3 290.4 96.9 290.4 96.9 319.8 79.9 319.8 79.9 300.2 73.3 300.2 73.3 326.1 96.9 326.1 96.9 354.7 76.6 354.7 76.6 332.5 75.6 332.5 70 332.5 70 361.1 103.3 361.1 103.3 354.7"/>
    <polygon class="st0" points="123.8 332.5 123.8 354.7 123.5 354.7 108 354.7 108 361.1 130.6 361.1 130.6 332.5 123.8 332.5"/>
  </g>
  <g>
    <rect class="st0" x="272.4" y="298.6" width="15.7" height="6"/>
    <polygon class="st0" points="243.7 304.6 243.7 298.6 243.7 298.6 243.7 290.4 237.3 290.4 237.3 298.6 216.8 298.6 216.8 304.6 237.3 304.6 237.3 304.9 237.3 312.3 243.7 312.3 243.7 304.6 243.7 304.6"/>
    <polygon class="st0" points="267.8 298.6 267.8 298.6 267.7 298.3 267.7 290.4 261.5 290.4 261.5 298.6 248.4 298.6 248.4 304.6 261.4 304.6 261.5 304.9 261.5 312.3 267.7 312.3 267.7 304.6 267.8 304.6 267.8 298.6"/>
  </g>
  <g>
    <polygon class="st0" points="263.1 322 275.1 322 275.2 321.9 275.2 315.9 225.7 315.9 225.7 322 263.1 322 263.1 322"/>
    <path class="st0" d="M278.5,341.7v.2c-.1,2.6-.3,4.5-.5,5.8,0,.2,0,.4,0,.6-1,5.3-2,6.1-8.4,6.5-11.6.6-23.2.6-34.6,0-3.4-.2-4.7-.9-4.7-2.8s0-.1,0-.2h0c0,0,0-.3,0-.3,0,0,0,0,0,0h0c0-.1,0-.1,0-.2,0,0,0-.1,0-.2,0,0,0-.1,0-.2,1.1-2.6,6.3-7.4,36.4-24.4h-12.2c-19,10.6-28.1,17.4-30.9,22.7,0,.2-.2.4-.3.5h0c0,.3-.2.5-.2.7h0c0,.3-.1.5-.2.6,0,.2,0,.4-.1.6h0c0,.3,0,.5,0,.6h0c0,.2,0,.4,0,.6,0,5.2,3.1,7.6,10.3,7.9,6.2.3,12.5.5,18.8.5s12.6-.2,18.9-.5c9.8-.5,12.4-2.4,13.7-10.3,0-.6.2-1.3.3-2.2.3-2.4.5-5.3.5-6.5v-.2s-6.6,0-6.6,0Z"/>
  </g>
  <g>
    <path class="st0" d="M436.4,347.7v-53.2h0v-4.3h-6.6v14.4h-29.2v5.8h27.7l-.2.5c-.4.9-.9,1.8-1.4,2.8-.3.6-.6,1.2-1,1.8l-.2.4c0,.2-.2.3-.3.5l-.2.3c0,.1-.2.3-.2.4,0,.2-.2.3-.3.5l-.2.3c0,.2-.2.3-.3.5-.1.2-.2.4-.4.6l-.4.6c-.1.2-.3.4-.4.6l-.4.6c-.1.2-.3.4-.4.6-.1.2-.3.4-.4.6-.1.2-.3.4-.4.6h0c-.1.2-.3.4-.4.6-.1.2-.3.4-.4.6-.2.2-.3.4-.5.6-.1.2-.3.4-.4.6-.2.2-.3.4-.5.6l-.4.5c-.2.2-.3.4-.5.6l-.4.5c-.2.2-.3.4-.5.6l-.4.5c-.2.2-.4.4-.6.7l-.4.5c-.2.2-.4.5-.6.7l-.4.4c-.3.3-.5.6-.8.9l-.2.3c-.3.4-.7.7-1,1.1l-.3.3c-.2.3-.5.5-.7.8l-.5.5c-.2.2-.4.4-.6.6l-.6.6c-.2.2-.3.3-.5.5-.1.1-.3.3-.4.4h0c-.2.3-.4.5-.6.7-.2.2-.3.3-.5.5-.2.2-.4.4-.6.6-.2.2-.3.3-.5.5-.2.2-.4.4-.6.6-.2.2-.3.3-.5.5-.2.2-.4.4-.6.6l-.5.5c-.2.2-.4.4-.7.6l-.5.4c-.2.2-.4.4-.7.5h0c-.2.2-.3.3-.5.4-.2.1-.4.3-.6.4l-.7.5c-.2.2-.4.3-.6.5l-.6.5c-.2.1-.4.3-.6.4l-.7.5c-.2.2-.5.3-.7.5l-.6.4c-.4.3-.8.6-1.2.8l-.2.2,4.9,5.5h.1c9.5-7.6,16.8-14.9,22.3-22.2,2.5-3.3,4.7-6.7,6.5-10.2l.6-1.2v41.5h6.6v-13.4h0Z"/>
    <rect class="st0" x="441" y="304.7" width="25" height="5.8"/>
    <path class="st0" d="M470.7,346.8c-.4-.2-.7-.5-1.1-.7l-.8-.5c-.2-.1-.4-.3-.6-.4l-.7-.5c-.2-.1-.4-.3-.6-.4-.2-.1-.3-.2-.5-.3l-2.1-1.6c-.2-.2-.4-.3-.6-.5h0c-.2-.2-.4-.3-.6-.5-.2-.2-.4-.3-.6-.5l-1.2-1c-.2-.2-.4-.3-.6-.5-.2-.2-.4-.3-.6-.5l-3-2.6c-.2-.1-.3-.3-.5-.4-.2-.2-.4-.3-.5-.5h0c-.2-.2-.3-.4-.5-.5l-.6-.6c-.2-.2-.3-.3-.5-.5l-.6-.6c-.1-.1-.3-.3-.4-.4l-.4-.4c-.8-.8-1.5-1.6-2.2-2.4l-.4-.4c-.2-.2-.3-.4-.5-.5l-.5-.5c-.1-.1-.3-.3-.4-.4l-.6-.7c-.2-.2-.4-.4-.5-.6l-.4-.5c-.2-.2-.3-.4-.5-.6l-.4-.5c-.2-.2-.3-.4-.5-.6h0c-.1-.2-.2-.3-.3-.5-.2-.2-.3-.4-.5-.6l-.4-.5c-.2-.2-.3-.4-.5-.7-.1-.2-.2-.3-.3-.5-.2-.2-.3-.4-.5-.7l-.3-.5c-.2-.2-.3-.5-.5-.7l-.3-.5c-.2-.3-.3-.5-.5-.7l-.3-.5c-.2-.2-.3-.5-.5-.7,0-.1-.1-.2-.2-.3v10.3c6.3,9.5,14.7,18,25.5,25.7h.1c0,0,4.5-5.9,4.5-5.9l-.5-.3Z"/>
  </g>
  <g>
    <path class="st0" d="M212.6,356.2c-12.7-9-24.1-24.3-30.4-40.9,0-.3-.1-.4-.2-.5-.3-.6-.5-1.2-.8-1.7-.6,2.8-1.5,5.9-2.7,9.2,7.9,18.3,16.8,30.3,29.1,39.6h.1c0,0,5-5.6,5-5.6h-.1Z"/>
    <path class="st0" d="M173.1,325.7c4.5-9.8,5.6-18.4,5.9-23.3,0-.3,0-.6,0-.9h0c0,0,0-.2,0-.2v-10.9h-23v6.7h16.1v6.8s-.3,5-.7,6.7c0,.4-.8,2.9-1,3.5-5.3,16.5-16,31-30.8,42.1h-.1c0,.1,4.8,5.2,4.8,5.2h.1c12.5-9.6,22.4-22,28.7-35.6h0Z"/>
  </g>
</svg>